<?xml version="1.0" encoding="UTF-8"?>
<svg viewBox="0 0 16 16" preserveAspectRatio="xMidYMid slice" version="1.1" xmlns="http://www.w3.org/2000/svg" xmlns:cc="http://creativecommons.org/ns#" xmlns:dc="http://purl.org/dc/elements/1.1/" xmlns:rdf="http://www.w3.org/1999/02/22-rdf-syntax-ns#">
 <metadata>
  <rdf:RDF>
   <cc:Work rdf:about="">
    <dc:format>image/svg+xml</dc:format>
    <dc:type rdf:resource="http://purl.org/dc/dcmitype/StillImage"/>
    <dc:title/>
   </cc:Work>
  </rdf:RDF>
 </metadata>
 <path d="m3.4688 0.050781c-1.1384-0.037343-2.0966 1.057-1.9688 2.1769 0.00671 4.0187-0.013451 8.0383 0.010124 12.056 0.078045 1.0799 1.1479 1.8922 2.206 1.7667 3.2954-0.0034 6.5912 0.0069 9.8864-0.0051 0.63561-0.04252 0.98614-0.70193 0.89747-1.2835-0.0034-3.6046 0.0069-7.2095-0.0051-10.814-0.04256-0.63566-0.70197-0.98619-1.2835-0.89752-3.2713-0.0034256-6.5429 0.0068537-9.8139-0.005144-0.81042-0.04005-1.2057-1.1597-0.60522-1.7026 0.46822-0.45324 1.1552-0.24405 1.7385-0.29225h8.9692c0.02642-0.65595-0.63876-1.0996-1.2474-1h-8.7839zm4.4902 6.5137c0.23323 0.063121 0.29468 0.72298 0.56686 0.35743 0.16112-0.33618 0.49504-0.28461 0.51968 0.094329 0.074528 0.41135 0.39545-0.019336 0.59633-0.098088 0.32756 0.033553 0.023366 0.77265 0.43467 0.5834 0.28192-0.24321 0.58759-0.10777 0.47412 0.27531-0.08254 0.46671 0.43617 0.060136 0.64661 0.18996 0.12202 0.21745-0.28675 0.72933 0.1668 0.67081 0.38841-0.12144 0.50183 0.20179 0.28076 0.48645-0.19498 0.3742 0.41034 0.182 0.54072 0.38962 0.05148 0.2529-0.50106 0.5113-0.12108 0.69151 0.23057 0.19034 0.51017 0.33531 0.71228 0.55204-0.17818 0.67952-0.77745 1.1923-1.1184 1.8079-0.34858 0.43343 0.10111-0.62288 0.21676-0.84501 0.22037-0.33812 0.3049-1.256-0.08536-0.47484-0.1953 0.23936-0.86486 1.4074-0.5245 0.55468 0.15098-0.3566 0.69864-1.2657 3.29e-4 -0.69839-0.43959 0.67625-1.2414 0.92038-1.7887 1.4808-0.30932 0.38295-1.4682 0.09084-1.2156-0.13074 0.51399 0.05033 1.6138-0.77951 0.51853-0.7107-0.28401-0.07675-0.70877 0.13874-0.64334-0.05542-0.46971-0.08812-0.16566 0.19932-0.66456 0.13252-0.39626 0.0306-1.1965 0.03322-0.4397 0.35799 0.36269 0.1892 1.0512 0.21208 0.40581 0.60256-0.80832 0.38294-1.1987-0.66593-1.842-0.90703-0.24882-0.22813-0.89705-1.0321-0.9845-0.73299 0.15702 0.27423 0.79113 1.4945 0.20927 0.68902-0.30414-0.19555-0.61483-1.1104-0.85543-0.83345 0.17577 0.65414 0.77217 1.1038 0.92914 1.7597-0.536-0.59863-1.2009-1.0945-1.6683-1.7484-0.006386-0.27833 0.33152-0.42468 0.4765-0.64351 0.1843-0.17575 0.42521-0.35875 0.13722-0.57078-0.31866-0.30004 0.13123-0.43008 0.39614-0.4314 0.27676-0.16694-0.39413-0.66192 0.06488-0.73302 0.29267 0.074221 0.61049-0.0019957 0.42151-0.35531-0.18665-0.40182 0.27384-0.35552 0.5221-0.24513 0.31152-0.048399-0.12235-0.7714 0.33562-0.64727 0.263 0.20724 0.56239 0.18978 0.52154-0.20463 0.0069003-0.44869 0.41533-0.12333 0.59198 0.040638 0.27817-0.0057989 0.15482-0.75627 0.51557-0.4872 0.13346 0.17743 0.39016 0.50042 0.50591 0.12646 0.077825-0.095064 0.10528-0.26767 0.2438-0.28987zm-0.85352 3.0996c-0.58005 0.14897 0.1468 1.015 0.21484 0.29883 0.0017069-0.12594-0.067728-0.29336-0.21484-0.29883zm1.7832 0c-0.63637 0.25079 0.32286 0.97024 0.1926 0.1751-0.024796-0.085541-0.094594-0.17497-0.1926-0.1751zm-3.2129 1.7676c0.31686 0.46239 0.63936-0.0085 0 0zm4.668 0.0078c-0.6559 0.0069-0.41254 0.39193 0 0z" fill="#474747"/>
</svg>
