<svg preserveAspectRatio="xMidYMid slice" version="1.1" viewBox="0 0 16 16" xmlns="http://www.w3.org/2000/svg"><path d="m1.9688 0c-1.0886-0.0027749-1.9715 0.88015-1.9688 1.9688v12.061c0 1.092 0.87775 1.9707 1.9688 1.9707h12.031c0.554 0 1-0.446 1-1v-11c0-0.554-0.446-1-1-1h-12c-0.554 0-1-0.446-1-1s0.446-1 1-1h12c0-0.559-0.441-1-1-1h-11.031zm6.0312 4.0625c2.7272-0.0011051 4.9381 2.2103 4.9375 4.9375 0.001105 2.7276-2.2099 4.9386-4.9375 4.9375-2.7276 0.001105-4.9386-2.2099-4.9375-4.9375-0.0011054-2.7276 2.2099-4.9386 4.9375-4.9375zm-2.8652 2.8086a0.81795 0.81795 0 0 0-0.38086 0.91992 0.81795 0.81795 0 0 0 0.78906 0.60547v0.61328c0 0.33638 0.2769 0.61328 0.61328 0.61328h0.15234l0.044922 0.082031-0.40039 0.32812h-0.20508c-0.33638 0-0.61328 0.2769-0.61328 0.61328v0.20312 0.20508h0.4082v-0.20508-0.20312c0-0.11536 0.089723-0.20508 0.20508-0.20508h0.31445a0.81795 0.81795 0 0 0 0.11328 0.15234c-0.13311 0.11293-0.22266 0.27453-0.22266 0.46094v0.20508 0.20312h0.4082v-0.20312-0.20508c0-0.11536 0.089723-0.20508 0.20508-0.20508h0.20312 0.41016 0.20508 1.8398 0.20508c0.11536 0 0.20312 0.089721 0.20312 0.20508v0.20508 0.20312h0.41016v-0.20312-0.20508c0-0.1864-0.091498-0.34801-0.22461-0.46094a0.81795 0.81795 0 0 0 0.11328-0.15234h0.31445c0.11536 0 0.20508 0.089721 0.20508 0.20508v0.20312 0.20508h0.4082v-0.20508-0.20312c0-0.33638-0.2769-0.61328-0.61328-0.61328h-0.20312l-0.40039-0.32812 0.044922-0.082031h0.55859c0.33638 0 0.61328-0.2769 0.61328-0.61328v-0.31445a0.81795 0.81795 0 0 0 0.38281-0.49609 0.81795 0.81795 0 0 0-0.38281-0.91992l-0.4082 0.70898-0.4082-0.70898a0.81795 0.81795 0 0 0-0.38281 0.91992 0.81795 0.81795 0 0 0 0.79102 0.60547v0.20508c0 0.11536-0.08972 0.20508-0.20508 0.20508h-0.47656l-0.37891-0.11328 0.052734-0.51562-0.51367 0.052734-0.15039-0.49414v-0.0019531l-0.45508 0.24609-0.32617-0.40039-0.32812 0.40039-0.45508-0.24609-0.14844 0.49609-0.51562-0.052734 0.052734 0.51562-0.37695 0.11328h-0.070312c-0.11536 0-0.20312-0.089717-0.20312-0.20508v-0.72461a0.81795 0.81795 0 0 0 0.38086-0.49414 0.81795 0.81795 0 0 0-0.38086-0.91992l-0.41016 0.70703-0.4082-0.70703zm2.2324 3.1621a0.20449 0.20449 0 0 1 0.011719 0 0.20449 0.20449 0 0 1 0.0058594 0 0.20449 0.20449 0 0 1 0.20312 0.20312 0.20449 0.20449 0 0 1-0.20312 0.20508 0.20449 0.20449 0 0 1-0.20508-0.20508 0.20449 0.20449 0 0 1 0.1875-0.20312zm1.2266 0a0.20449 0.20449 0 0 1 0.011719 0 0.20449 0.20449 0 0 1 0.0058593 0 0.20449 0.20449 0 0 1 0.20312 0.20312 0.20449 0.20449 0 0 1-0.20312 0.20508 0.20449 0.20449 0 0 1-0.20508-0.20508 0.20449 0.20449 0 0 1 0.1875-0.20312z" fill="#474747"/></svg>
