<?xml version="1.0" encoding="UTF-8" standalone="no"?>
<!-- Created with Inkscape (http://www.inkscape.org/) -->
<svg xmlns:dc="http://purl.org/dc/elements/1.1/" xmlns:cc="http://creativecommons.org/ns#" xmlns:rdf="http://www.w3.org/1999/02/22-rdf-syntax-ns#" xmlns:svg="http://www.w3.org/2000/svg" xmlns="http://www.w3.org/2000/svg" xmlns:sodipodi="http://sodipodi.sourceforge.net/DTD/sodipodi-0.dtd" xmlns:inkscape="http://www.inkscape.org/namespaces/inkscape" width="33.866665mm" height="33.866665mm" viewBox="0 0 33.866665 33.866665" id="svg14807" version="1.1" inkscape:version="0.91+devel+osxmenu r12922" sodipodi:docname="gnome_rust.svg" inkscape:export-filename="/Users/felipe/Documents/gnome_rust_512x512.png" inkscape:export-xdpi="384" inkscape:export-ydpi="384">
  <title id="title15413">GNOME Rust logo</title>
  <defs id="defs14809"/>
  <sodipodi:namedview id="base" pagecolor="#ffffff" bordercolor="#666666" borderopacity="1.0" inkscape:pageopacity="0.0" inkscape:pageshadow="2" inkscape:zoom="2.8" inkscape:cx="62.571432" inkscape:cy="56.857153" inkscape:document-units="mm" inkscape:current-layer="layer1" showgrid="false" fit-margin-top="0" fit-margin-left="0" fit-margin-right="0" fit-margin-bottom="0" inkscape:window-width="1080" inkscape:window-height="675" inkscape:window-x="348" inkscape:window-y="23" inkscape:window-maximized="0"/>
  <metadata id="metadata14812">
    <rdf:RDF>
      <cc:Work rdf:about="">
        <dc:format>image/svg+xml</dc:format>
        <dc:type rdf:resource="http://purl.org/dc/dcmitype/StillImage"/>
        <dc:title>GNOME Rust logo</dc:title>
        <dc:date>04/09/2019</dc:date>
        <dc:creator>
          <cc:Agent>
            <dc:title>Felipe Erias Morandeira</dc:title>
          </cc:Agent>
        </dc:creator>
        <dc:description/>
        <dc:rights>
          <cc:Agent>
            <dc:title>Creative Commons Attribution license (CC-BY)</dc:title>
          </cc:Agent>
        </dc:rights>
        <dc:contributor>
          <cc:Agent>
            <dc:title>Felipe Erias Morandeira &lt;felipeerias@gmail.com&gt;</dc:title>
          </cc:Agent>
        </dc:contributor>
        <cc:license rdf:resource="http://creativecommons.org/licenses/by/4.0/"/>
      </cc:Work>
      <cc:License rdf:about="http://creativecommons.org/licenses/by/4.0/">
        <cc:permits rdf:resource="http://creativecommons.org/ns#Reproduction"/>
        <cc:permits rdf:resource="http://creativecommons.org/ns#Distribution"/>
        <cc:requires rdf:resource="http://creativecommons.org/ns#Notice"/>
        <cc:requires rdf:resource="http://creativecommons.org/ns#Attribution"/>
        <cc:permits rdf:resource="http://creativecommons.org/ns#DerivativeWorks"/>
      </cc:License>
    </rdf:RDF>
  </metadata>
  <g inkscape:label="Layer 1" inkscape:groupmode="layer" id="layer1" transform="translate(-56.394047,-82.7631)">
    <g id="g14767" transform="translate(333.62468,28.719365)" inkscape:export-xdpi="384" inkscape:export-ydpi="384">
      <path inkscape:export-ydpi="384" inkscape:export-xdpi="384" style="stroke-width:0.26458332" sodipodi:nodetypes="sssssccccsccccccccaaccccccccccccccacsscssscssscssscss" inkscape:connector-curvature="0" id="path14648" d="m -260.29716,58.469999 c -6.89505,0 -12.50673,5.614853 -12.50673,12.507249 0,6.892395 5.61433,12.506729 12.50673,12.506729 6.89238,0 12.50672,-5.614334 12.50672,-12.506729 0,-6.892396 -5.61434,-12.507249 -12.50672,-12.507249 z m -0.0185,1.111563 c 0.44468,0.01151 0.79957,0.376404 0.79943,0.822687 0,1.09714 -1.64589,1.09714 -1.64589,0 -2.1e-4,-0.463912 0.38272,-0.836112 0.84646,-0.822687 z m -1.85984,1.354439 1.26709,1.328084 c 0.28575,0.298979 0.75935,0.312682 1.05833,0.02429 l 1.41854,-1.35237 c 2.92368,0.547619 5.45852,2.353144 6.93187,4.937165 l -0.971,2.190565 c -0.16669,0.378354 0.005,0.822854 0.38085,0.992187 l 1.86811,0.828374 c 0.0579,0.58389 0.065,1.171879 0.0212,1.756997 0,0 -0.2324,2.064882 -0.60255,3.023589 -0.31267,0.809842 -0.83069,1.530057 -1.33945,2.233457 -0.27993,0.387027 -0.59894,0.745667 -0.93638,1.084686 l -1.73839,-0.373103 c -0.40481,-0.08731 -0.80462,0.172414 -0.89194,0.577226 l -0.41237,1.925981 c -2.68583,1.216671 -5.76863,1.202069 -8.4429,-0.03979 l -0.41291,-1.925982 c -0.0873,-0.404812 -0.484,-0.664022 -0.88882,-0.576709 l -1.70172,0.364836 c -0.3157,-0.325659 -1.22621,-1.579903 -1.37562,-1.788522 -0.5828,-0.664147 -0.8428,-1.637628 -1.09297,-2.484591 -0.17872,-0.627666 -0.46841,-2.567776 -0.3276,-3.865398 l 1.77249,-0.788583 c 0.37836,-0.169333 0.55018,-0.611249 0.38085,-0.989603 l -1.26193,-1.925981 c 0.52908,-0.793721 0.97932,-1.415952 1.63245,-1.960602 1.66507,-1.388552 3.47641,-2.78275 5.66478,-3.196188 z m -7.95094,6.090584 c 0.44513,0.01288 0.79962,0.377893 0.79944,0.823206 0,1.097137 -1.6459,1.097137 -1.6459,0 -2.1e-4,-0.463915 0.38275,-0.836631 0.84646,-0.823206 z m 19.61896,0.03721 c 0.44512,0.01289 0.7991,0.377378 0.79891,0.82269 0,1.097138 -1.64537,1.097138 -1.64537,0 -2e-4,-0.463915 0.38274,-0.836115 0.84646,-0.82269 z m -15.90135,11.549166 c 0.44511,0.01288 0.79909,0.37738 0.79891,0.82269 0,1.097137 -1.64537,1.097137 -1.64537,0 -2.1e-4,-0.463915 0.38272,-0.836115 0.84646,-0.82269 z m 12.18426,0.03721 c 0.44512,0.01288 0.79911,0.377378 0.79892,0.822688 0,1.097137 -1.6459,1.097137 -1.6459,0 -1.9e-4,-0.463915 0.38326,-0.836113 0.84698,-0.822688 z"/>
      <path inkscape:export-ydpi="384" inkscape:export-xdpi="384" id="path14650" transform="scale(0.26458333)" d="m -983.80078,217.50977 -3.66797,5.92187 a 44.999999,44.999999 0 0 0 -1.44531,0.17578 l -4.78516,-5.11719 -2.43945,6.50977 a 44.999999,44.999999 0 0 0 -1.38867,0.46094 l -5.69336,-4.0918 -1.1191,6.85938 a 44.999999,44.999999 0 0 0 -1.2852,0.73632 l -6.375,-2.90429 0.2441,6.93554 a 44.999999,44.999999 0 0 0 -1.1171,0.98047 l -6.8165,-1.60742 1.5938,6.76953 a 44.999999,44.999999 0 0 0 -0.9121,1.16992 l -6.9922,-0.24804 2.8887,6.33398 a 44.999999,44.999999 0 0 0 -0.6758,1.31836 l -6.9024,1.12695 4.0665,5.65821 a 44.999999,44.999999 0 0 0 -0.4102,1.41406 l -6.5371,2.44727 5.0918,4.75976 a 44.999999,44.999999 0 0 0 -0.1387,1.46484 l -5.9336,3.67579 5.9219,3.66796 a 44.999999,44.999999 0 0 0 0.1758,1.44922 l -5.1172,4.78321 6.5098,2.4375 a 44.999999,44.999999 0 0 0 0.4609,1.38867 l -4.0899,5.69336 6.8575,1.11914 a 44.999999,44.999999 0 0 0 0.7382,1.28711 l -2.9062,6.37304 6.9355,-0.24414 a 44.999999,44.999999 0 0 0 0.9805,1.11719 l -1.6055,6.81836 6.7696,-1.59375 a 44.999999,44.999999 0 0 0 1.1679,0.91016 l -0.248,6.99218 6.3359,-2.88671 a 44.999999,44.999999 0 0 0 1.3164,0.67382 l 1.127,6.9043 5.66015,-4.06836 a 44.999999,44.999999 0 0 0 1.41211,0.41016 l 2.44922,6.53711 4.75977,-5.0918 a 44.999999,44.999999 0 0 0 1.46484,0.13867 l 3.67383,5.9336 3.66601,-5.92188 a 44.999999,44.999999 0 0 0 1.45118,-0.17578 l 4.7832,5.11719 2.44141,-6.50977 a 44.999999,44.999999 0 0 0 1.38867,-0.46289 l 5.68945,4.09375 1.11914,-6.85937 a 44.999999,44.999999 0 0 0 1.28516,-0.73829 l 6.37695,2.90625 -0.24609,-6.93554 a 44.999999,44.999999 0 0 0 1.11718,-0.98047 l 6.81836,1.60742 -1.59375,-6.76953 a 44.999999,44.999999 0 0 0 0.91016,-1.16992 l 6.99414,0.24804 -2.88867,-6.33398 a 44.999999,44.999999 0 0 0 0.67578,-1.31836 l 6.90234,-1.12695 -4.06836,-5.66016 a 44.999999,44.999999 0 0 0 0.41016,-1.41015 l 6.53906,-2.44922 -5.09375,-4.76172 a 44.999999,44.999999 0 0 0 0.13867,-1.46289 l 5.9336,-3.67578 -5.91992,-3.66602 a 44.999999,44.999999 0 0 0 -0.17578,-1.45117 l 5.11718,-4.7832 -6.50976,-2.43946 A 44.999999,44.999999 0 0 0 -941,254.5332 l 4.08984,-5.69336 -6.85742,-1.11914 a 44.999999,44.999999 0 0 0 -0.73828,-1.28711 l 2.90625,-6.37304 -6.9375,0.24414 a 44.999999,44.999999 0 0 0 -0.97851,-1.11524 l 1.60546,-6.82031 -6.76953,1.5957 a 44.999999,44.999999 0 0 0 -1.16797,-0.91211 l 0.24805,-6.99218 -6.33594,2.88476 a 44.999999,44.999999 0 0 0 -1.31836,-0.67383 l -1.12695,-6.90234 -5.6582,4.06836 a 44.999999,44.999999 0 0 0 -1.41211,-0.41016 l -2.44922,-6.53711 -4.76172,5.0918 a 44.999999,44.999999 0 0 0 -1.46289,-0.13867 l -3.67578,-5.93359 z m 0,12.25 a 38.500001,38.500001 0 0 1 38.5,38.5 38.500001,38.500001 0 0 1 -38.5,38.5 38.500001,38.500001 0 0 1 -38.50002,-38.5 38.500001,38.500001 0 0 1 38.50002,-38.5 z" style="fill-rule:evenodd;stroke:#000000;stroke-width:3;stroke-linecap:round;stroke-linejoin:round" inkscape:connector-curvature="0"/>
      <circle inkscape:export-ydpi="384" inkscape:export-xdpi="384" r="10.186459" cy="70.977043" cx="-260.29712" id="path14684" style="opacity:1;fill:#000000;fill-opacity:1;stroke:none;stroke-width:0.26499999;stroke-linecap:butt;stroke-linejoin:round;stroke-miterlimit:4;stroke-dasharray:none;stroke-dashoffset:0;stroke-opacity:1"/>
      <g inkscape:export-ydpi="384" inkscape:export-xdpi="384" transform="matrix(0.16108574,0,0,0.16108574,-268.04614,62.113502)" style="fill:#ffffff;fill-opacity:1;fill-rule:nonzero;stroke:none;stroke-width:4.7877183;stroke-miterlimit:4" id="g14654">
        <path inkscape:connector-curvature="0" d="M 86.068,0 C 61.466,0 56.851,35.041 70.691,35.041 84.529,35.041 110.671,0 86.068,0 Z" style="fill:#ffffff;fill-opacity:1;stroke-width:4.7877183" id="path14656"/>
        <path inkscape:connector-curvature="0" d="M 45.217,30.699 C 52.586,31.149 60.671,2.577 46.821,4.374 32.976,6.171 37.845,30.249 45.217,30.699 Z" style="fill:#ffffff;fill-opacity:1;stroke-width:4.7877183" id="path14658"/>
        <path inkscape:connector-curvature="0" d="M 11.445,48.453 C 16.686,46.146 12.12,23.581 3.208,29.735 -5.7,35.89 6.204,50.759 11.445,48.453 Z" style="fill:#ffffff;fill-opacity:1;stroke-width:4.7877183" id="path14660"/>
        <path inkscape:connector-curvature="0" d="M 26.212,36.642 C 32.451,35.37 32.793,9.778 21.667,14.369 10.539,18.961 19.978,37.916 26.212,36.642 l 0,0 z" style="fill:#ffffff;fill-opacity:1;stroke-width:4.7877183" id="path14662"/>
        <path inkscape:connector-curvature="0" d="m 58.791,93.913 c 1.107,8.454 -6.202,12.629 -13.36,7.179 C 22.644,83.743 83.16,75.088 79.171,51.386 75.86,31.712 15.495,37.769 8.621,68.553 3.968,89.374 27.774,118.26 52.614,118.26 c 12.22,0 26.315,-11.034 28.952,-25.012 C 83.58,82.589 57.867,86.86 58.791,93.913 l 0,0 z" style="fill:#ffffff;fill-opacity:1;stroke-width:4.7877183" id="path14664"/>
      </g>
      <path inkscape:export-ydpi="384" inkscape:export-xdpi="384" id="path14759" d="m -260.31589,59.581375 a 0.82285416,0.82285416 0 0 0 -0.84646,0.82269 0.82294676,0.82294676 0 0 0 1.64589,0 0.82020832,0.82285416 0 0 0 -0.79943,-0.82269 z" style="opacity:1;fill:#ffffff;fill-opacity:1;stroke:none;stroke-width:1.00157475;stroke-linecap:butt;stroke-linejoin:round;stroke-miterlimit:4;stroke-dasharray:none;stroke-dashoffset:0;stroke-opacity:1" inkscape:connector-curvature="0"/>
      <path inkscape:export-ydpi="384" inkscape:export-xdpi="384" id="path14755" d="m -270.12667,67.026916 a 0.82285416,0.82285416 0 0 0 -0.84645,0.822688 0.82294676,0.82294676 0 0 0 1.64589,0 0.82285416,0.82285416 0 0 0 -0.79944,-0.822688 z" style="opacity:1;fill:#ffffff;fill-opacity:1;stroke:none;stroke-width:1.00157475;stroke-linecap:butt;stroke-linejoin:round;stroke-miterlimit:4;stroke-dasharray:none;stroke-dashoffset:0;stroke-opacity:1" inkscape:connector-curvature="0"/>
      <path inkscape:export-ydpi="384" inkscape:export-xdpi="384" id="path14753" d="m -250.5077,67.064122 a 0.82285416,0.82285416 0 0 0 -0.84646,0.82269 0.82285548,0.82285548 0 0 0 1.64537,0 0.82285416,0.82285416 0 0 0 -0.79891,-0.82269 z" style="opacity:1;fill:#ffffff;fill-opacity:1;stroke:none;stroke-width:1.00157475;stroke-linecap:butt;stroke-linejoin:round;stroke-miterlimit:4;stroke-dasharray:none;stroke-dashoffset:0;stroke-opacity:1" inkscape:connector-curvature="0"/>
      <path inkscape:export-ydpi="384" inkscape:export-xdpi="384" id="path14745" d="m -266.40906,78.612771 a 0.82285416,0.82285416 0 0 0 -0.84646,0.823207 0.82285508,0.82285508 0 0 0 1.64537,0 0.82285416,0.82285416 0 0 0 -0.79891,-0.823207 z" style="opacity:1;fill:#ffffff;fill-opacity:1;stroke:none;stroke-width:1.00157475;stroke-linecap:butt;stroke-linejoin:round;stroke-miterlimit:4;stroke-dasharray:none;stroke-dashoffset:0;stroke-opacity:1" inkscape:connector-curvature="0"/>
      <path inkscape:export-ydpi="384" inkscape:export-xdpi="384" id="circle14740" d="m -254.22531,78.64998 a 0.82285416,0.82285416 0 0 0 -0.84646,0.822687 0.82295,0.82295 0 0 0 1.6459,0 0.82285416,0.82285416 0 0 0 -0.79892,-0.822687 0.82285416,0.82285416 0 0 1 -5.2e-4,0 z" style="opacity:1;fill:#ffffff;fill-opacity:1;stroke:none;stroke-width:1.00157475;stroke-linecap:butt;stroke-linejoin:round;stroke-miterlimit:4;stroke-dasharray:none;stroke-dashoffset:0;stroke-opacity:1" inkscape:connector-curvature="0"/>
    </g>
  </g>
</svg>